<mxfile host="app.diagrams.net" modified="2023-10-12T12:29:19.289Z" agent="Mozilla/5.0 (Windows NT 10.0; Win64; x64) AppleWebKit/537.36 (KHTML, like Gecko) Chrome/117.0.0.0 Safari/537.36" etag="ltTDQbJocNO8MQQ2tytw" version="22.0.4" type="device">
  <diagram name="PÃ¡gina-1" id="eZFO5isT3SEt-fo2gmSH">
    <mxGraphModel dx="3088" dy="1927" grid="1" gridSize="10" guides="1" tooltips="1" connect="1" arrows="1" fold="1" page="1" pageScale="1" pageWidth="827" pageHeight="1169" math="0" shadow="0">
      <root>
        <mxCell id="0" />
        <mxCell id="1" parent="0" />
        <mxCell id="Rj_NIWeB4Wzyb2uFN2SR-1" value="Paciente" style="rounded=1;whiteSpace=wrap;html=1;" parent="1" vertex="1">
          <mxGeometry x="-490" y="-30" width="120" height="60" as="geometry" />
        </mxCell>
        <mxCell id="Rj_NIWeB4Wzyb2uFN2SR-3" value="fecha_naciemento" style="ellipse;whiteSpace=wrap;html=1;" parent="1" vertex="1">
          <mxGeometry x="-350" y="-76.25" width="110" height="46.25" as="geometry" />
        </mxCell>
        <mxCell id="Rj_NIWeB4Wzyb2uFN2SR-4" value="direccion" style="ellipse;whiteSpace=wrap;html=1;" parent="1" vertex="1">
          <mxGeometry x="-330" y="-160" width="80" height="36.25" as="geometry" />
        </mxCell>
        <mxCell id="Rj_NIWeB4Wzyb2uFN2SR-5" value="correo" style="ellipse;whiteSpace=wrap;html=1;" parent="1" vertex="1">
          <mxGeometry x="-325" y="-202.5" width="85" height="32.5" as="geometry" />
        </mxCell>
        <mxCell id="Rj_NIWeB4Wzyb2uFN2SR-6" value="tel" style="ellipse;whiteSpace=wrap;html=1;" parent="1" vertex="1">
          <mxGeometry x="-340" y="-111.25" width="60" height="30" as="geometry" />
        </mxCell>
        <mxCell id="Rj_NIWeB4Wzyb2uFN2SR-7" value="nombre" style="ellipse;whiteSpace=wrap;html=1;" parent="1" vertex="1">
          <mxGeometry x="-443" y="-185" width="60" height="35" as="geometry" />
        </mxCell>
        <mxCell id="Rj_NIWeB4Wzyb2uFN2SR-8" value="apellidio" style="ellipse;whiteSpace=wrap;html=1;" parent="1" vertex="1">
          <mxGeometry x="-513" y="-225" width="70" height="30" as="geometry" />
        </mxCell>
        <mxCell id="Rj_NIWeB4Wzyb2uFN2SR-9" value="dni" style="ellipse;whiteSpace=wrap;html=1;" parent="1" vertex="1">
          <mxGeometry x="-550" y="-180" width="70" height="30" as="geometry" />
        </mxCell>
        <mxCell id="Rj_NIWeB4Wzyb2uFN2SR-10" value="&lt;u&gt;id_paciente&lt;/u&gt;" style="ellipse;whiteSpace=wrap;html=1;" parent="1" vertex="1">
          <mxGeometry x="-583" y="-140" width="70" height="40" as="geometry" />
        </mxCell>
        <mxCell id="Rj_NIWeB4Wzyb2uFN2SR-11" value="genero" style="ellipse;whiteSpace=wrap;html=1;" parent="1" vertex="1">
          <mxGeometry x="-390" y="-210" width="60" height="30" as="geometry" />
        </mxCell>
        <mxCell id="Rj_NIWeB4Wzyb2uFN2SR-13" value="" style="endArrow=none;html=1;rounded=0;exitX=0.5;exitY=0;exitDx=0;exitDy=0;entryX=0;entryY=0.5;entryDx=0;entryDy=0;" parent="1" source="Rj_NIWeB4Wzyb2uFN2SR-1" target="Rj_NIWeB4Wzyb2uFN2SR-3" edge="1">
          <mxGeometry width="50" height="50" relative="1" as="geometry">
            <mxPoint x="-525" y="-180" as="sourcePoint" />
            <mxPoint x="-445.06314203119246" y="-215.56223563421509" as="targetPoint" />
          </mxGeometry>
        </mxCell>
        <mxCell id="Rj_NIWeB4Wzyb2uFN2SR-14" value="" style="endArrow=none;html=1;rounded=0;entryX=-0.007;entryY=0.8;entryDx=0;entryDy=0;exitX=0.5;exitY=0;exitDx=0;exitDy=0;entryPerimeter=0;" parent="1" source="Rj_NIWeB4Wzyb2uFN2SR-1" target="Rj_NIWeB4Wzyb2uFN2SR-6" edge="1">
          <mxGeometry width="50" height="50" relative="1" as="geometry">
            <mxPoint x="-410" y="-220" as="sourcePoint" />
            <mxPoint x="-412.67766952966394" y="-294.3933982822018" as="targetPoint" />
          </mxGeometry>
        </mxCell>
        <mxCell id="Rj_NIWeB4Wzyb2uFN2SR-15" value="" style="endArrow=none;html=1;rounded=0;entryX=0.5;entryY=1;entryDx=0;entryDy=0;exitX=0.5;exitY=0;exitDx=0;exitDy=0;" parent="1" source="Rj_NIWeB4Wzyb2uFN2SR-1" target="Rj_NIWeB4Wzyb2uFN2SR-7" edge="1">
          <mxGeometry width="50" height="50" relative="1" as="geometry">
            <mxPoint x="-550" y="-160" as="sourcePoint" />
            <mxPoint x="-360" y="-270" as="targetPoint" />
          </mxGeometry>
        </mxCell>
        <mxCell id="Rj_NIWeB4Wzyb2uFN2SR-16" value="" style="endArrow=none;html=1;rounded=0;entryX=0;entryY=0.5;entryDx=0;entryDy=0;exitX=0.5;exitY=0;exitDx=0;exitDy=0;" parent="1" source="Rj_NIWeB4Wzyb2uFN2SR-1" target="Rj_NIWeB4Wzyb2uFN2SR-4" edge="1">
          <mxGeometry width="50" height="50" relative="1" as="geometry">
            <mxPoint x="-410" y="-220" as="sourcePoint" />
            <mxPoint x="-360" y="-270" as="targetPoint" />
          </mxGeometry>
        </mxCell>
        <mxCell id="Rj_NIWeB4Wzyb2uFN2SR-17" value="" style="endArrow=none;html=1;rounded=0;entryX=0.5;entryY=1;entryDx=0;entryDy=0;exitX=0.5;exitY=0;exitDx=0;exitDy=0;" parent="1" source="Rj_NIWeB4Wzyb2uFN2SR-1" target="Rj_NIWeB4Wzyb2uFN2SR-8" edge="1">
          <mxGeometry width="50" height="50" relative="1" as="geometry">
            <mxPoint x="-410" y="-220" as="sourcePoint" />
            <mxPoint x="-360" y="-270" as="targetPoint" />
          </mxGeometry>
        </mxCell>
        <mxCell id="Rj_NIWeB4Wzyb2uFN2SR-18" value="" style="endArrow=none;html=1;rounded=0;entryX=0.5;entryY=1;entryDx=0;entryDy=0;exitX=0.5;exitY=0;exitDx=0;exitDy=0;" parent="1" source="Rj_NIWeB4Wzyb2uFN2SR-1" target="Rj_NIWeB4Wzyb2uFN2SR-9" edge="1">
          <mxGeometry width="50" height="50" relative="1" as="geometry">
            <mxPoint x="-580" y="-160" as="sourcePoint" />
            <mxPoint x="-360" y="-270" as="targetPoint" />
          </mxGeometry>
        </mxCell>
        <mxCell id="Rj_NIWeB4Wzyb2uFN2SR-19" value="" style="endArrow=none;html=1;rounded=0;entryX=0.5;entryY=1;entryDx=0;entryDy=0;exitX=0.5;exitY=0;exitDx=0;exitDy=0;" parent="1" source="Rj_NIWeB4Wzyb2uFN2SR-1" target="Rj_NIWeB4Wzyb2uFN2SR-11" edge="1">
          <mxGeometry width="50" height="50" relative="1" as="geometry">
            <mxPoint x="-580" y="-160" as="sourcePoint" />
            <mxPoint x="-360" y="-270" as="targetPoint" />
          </mxGeometry>
        </mxCell>
        <mxCell id="Rj_NIWeB4Wzyb2uFN2SR-20" value="" style="endArrow=none;html=1;rounded=0;entryX=0;entryY=0.5;entryDx=0;entryDy=0;exitX=0.5;exitY=0;exitDx=0;exitDy=0;" parent="1" source="Rj_NIWeB4Wzyb2uFN2SR-1" target="Rj_NIWeB4Wzyb2uFN2SR-5" edge="1">
          <mxGeometry width="50" height="50" relative="1" as="geometry">
            <mxPoint x="-410" y="-220" as="sourcePoint" />
            <mxPoint x="-360" y="-270" as="targetPoint" />
          </mxGeometry>
        </mxCell>
        <mxCell id="Rj_NIWeB4Wzyb2uFN2SR-21" value="" style="endArrow=none;html=1;rounded=0;entryX=0.5;entryY=1;entryDx=0;entryDy=0;exitX=0.433;exitY=0;exitDx=0;exitDy=0;exitPerimeter=0;" parent="1" source="Rj_NIWeB4Wzyb2uFN2SR-1" target="Rj_NIWeB4Wzyb2uFN2SR-10" edge="1">
          <mxGeometry width="50" height="50" relative="1" as="geometry">
            <mxPoint x="-410" y="-220" as="sourcePoint" />
            <mxPoint x="-360" y="-270" as="targetPoint" />
          </mxGeometry>
        </mxCell>
        <mxCell id="Rj_NIWeB4Wzyb2uFN2SR-22" value="Oreden_de_Trabajo" style="rounded=1;whiteSpace=wrap;html=1;" parent="1" vertex="1">
          <mxGeometry x="-40" width="120" height="60" as="geometry" />
        </mxCell>
        <mxCell id="Rj_NIWeB4Wzyb2uFN2SR-23" value="fecha_Creacion" style="ellipse;whiteSpace=wrap;html=1;" parent="1" vertex="1">
          <mxGeometry y="-195" width="100" height="55" as="geometry" />
        </mxCell>
        <mxCell id="Rj_NIWeB4Wzyb2uFN2SR-25" value="estado" style="ellipse;whiteSpace=wrap;html=1;" parent="1" vertex="1">
          <mxGeometry x="-50" y="-148.75" width="60" height="37.5" as="geometry" />
        </mxCell>
        <mxCell id="Rj_NIWeB4Wzyb2uFN2SR-27" value="observaciones" style="ellipse;whiteSpace=wrap;html=1;" parent="1" vertex="1">
          <mxGeometry x="140" y="-63.75" width="100" height="40" as="geometry" />
        </mxCell>
        <mxCell id="Rj_NIWeB4Wzyb2uFN2SR-28" value="motivo_del_pedido" style="ellipse;whiteSpace=wrap;html=1;" parent="1" vertex="1">
          <mxGeometry x="135" y="-123.75" width="110" height="50" as="geometry" />
        </mxCell>
        <mxCell id="Rj_NIWeB4Wzyb2uFN2SR-30" value="&lt;u&gt;id_or_de_trabajo&lt;/u&gt;" style="ellipse;whiteSpace=wrap;html=1;" parent="1" vertex="1">
          <mxGeometry x="-130" y="-197.5" width="110" height="48.75" as="geometry" />
        </mxCell>
        <mxCell id="Rj_NIWeB4Wzyb2uFN2SR-31" value="medico_solicitante" style="ellipse;whiteSpace=wrap;html=1;" parent="1" vertex="1">
          <mxGeometry x="130" y="-180" width="110" height="50" as="geometry" />
        </mxCell>
        <mxCell id="Rj_NIWeB4Wzyb2uFN2SR-32" value="" style="endArrow=none;html=1;rounded=0;exitX=0.5;exitY=0;exitDx=0;exitDy=0;" parent="1" source="Rj_NIWeB4Wzyb2uFN2SR-22" target="Rj_NIWeB4Wzyb2uFN2SR-23" edge="1">
          <mxGeometry width="50" height="50" relative="1" as="geometry">
            <mxPoint x="35" y="-315" as="sourcePoint" />
            <mxPoint x="85" y="-365" as="targetPoint" />
          </mxGeometry>
        </mxCell>
        <mxCell id="Rj_NIWeB4Wzyb2uFN2SR-34" value="" style="endArrow=none;html=1;rounded=0;entryX=0;entryY=0.5;entryDx=0;entryDy=0;exitX=0.5;exitY=0;exitDx=0;exitDy=0;" parent="1" source="Rj_NIWeB4Wzyb2uFN2SR-22" target="Rj_NIWeB4Wzyb2uFN2SR-27" edge="1">
          <mxGeometry width="50" height="50" relative="1" as="geometry">
            <mxPoint x="10" y="-295" as="sourcePoint" />
            <mxPoint x="200" y="-405" as="targetPoint" />
          </mxGeometry>
        </mxCell>
        <mxCell id="Rj_NIWeB4Wzyb2uFN2SR-36" value="" style="endArrow=none;html=1;rounded=0;entryX=0;entryY=0.5;entryDx=0;entryDy=0;exitX=0.5;exitY=0;exitDx=0;exitDy=0;" parent="1" source="Rj_NIWeB4Wzyb2uFN2SR-22" target="Rj_NIWeB4Wzyb2uFN2SR-28" edge="1">
          <mxGeometry width="50" height="50" relative="1" as="geometry">
            <mxPoint x="150" y="-355" as="sourcePoint" />
            <mxPoint x="200" y="-405" as="targetPoint" />
          </mxGeometry>
        </mxCell>
        <mxCell id="Rj_NIWeB4Wzyb2uFN2SR-38" value="" style="endArrow=none;html=1;rounded=0;entryX=0;entryY=0.5;entryDx=0;entryDy=0;exitX=0.5;exitY=0;exitDx=0;exitDy=0;" parent="1" source="Rj_NIWeB4Wzyb2uFN2SR-22" target="Rj_NIWeB4Wzyb2uFN2SR-31" edge="1">
          <mxGeometry width="50" height="50" relative="1" as="geometry">
            <mxPoint x="-20" y="-295" as="sourcePoint" />
            <mxPoint x="200" y="-405" as="targetPoint" />
          </mxGeometry>
        </mxCell>
        <mxCell id="Rj_NIWeB4Wzyb2uFN2SR-39" value="" style="endArrow=none;html=1;rounded=0;entryX=0.5;entryY=1;entryDx=0;entryDy=0;exitX=0.5;exitY=0;exitDx=0;exitDy=0;" parent="1" source="Rj_NIWeB4Wzyb2uFN2SR-22" target="Rj_NIWeB4Wzyb2uFN2SR-25" edge="1">
          <mxGeometry width="50" height="50" relative="1" as="geometry">
            <mxPoint x="150" y="-355" as="sourcePoint" />
            <mxPoint x="200" y="-405" as="targetPoint" />
          </mxGeometry>
        </mxCell>
        <mxCell id="Rj_NIWeB4Wzyb2uFN2SR-40" value="" style="endArrow=none;html=1;rounded=0;entryX=0.894;entryY=0.16;entryDx=0;entryDy=0;exitX=0;exitY=0.5;exitDx=0;exitDy=0;entryPerimeter=0;" parent="1" source="Rj_NIWeB4Wzyb2uFN2SR-74" target="Rj_NIWeB4Wzyb2uFN2SR-79" edge="1">
          <mxGeometry width="50" height="50" relative="1" as="geometry">
            <mxPoint x="-823" y="467.5" as="sourcePoint" />
            <mxPoint x="-1148" y="437.5" as="targetPoint" />
          </mxGeometry>
        </mxCell>
        <mxCell id="Rj_NIWeB4Wzyb2uFN2SR-43" value="tipo_de_examen" style="rounded=1;whiteSpace=wrap;html=1;" parent="1" vertex="1">
          <mxGeometry x="140" y="10" width="100" height="40" as="geometry" />
        </mxCell>
        <mxCell id="Rj_NIWeB4Wzyb2uFN2SR-44" value="descripcion" style="ellipse;whiteSpace=wrap;html=1;" parent="1" vertex="1">
          <mxGeometry x="380" y="-63.75" width="90" height="52.5" as="geometry" />
        </mxCell>
        <mxCell id="Rj_NIWeB4Wzyb2uFN2SR-45" value="codigo" style="ellipse;whiteSpace=wrap;html=1;" parent="1" vertex="1">
          <mxGeometry x="370" y="12.5" width="50" height="35" as="geometry" />
        </mxCell>
        <mxCell id="Rj_NIWeB4Wzyb2uFN2SR-48" value="&lt;u&gt;id_tipo_de_examen&lt;/u&gt;" style="ellipse;whiteSpace=wrap;html=1;" parent="1" vertex="1">
          <mxGeometry x="280" y="-110" width="110" height="60" as="geometry" />
        </mxCell>
        <mxCell id="Rj_NIWeB4Wzyb2uFN2SR-49" value="tiempo_estimado" style="ellipse;whiteSpace=wrap;html=1;" parent="1" vertex="1">
          <mxGeometry x="310" y="60" width="110" height="50" as="geometry" />
        </mxCell>
        <mxCell id="Rj_NIWeB4Wzyb2uFN2SR-50" value="" style="endArrow=none;html=1;rounded=0;exitX=1;exitY=0.5;exitDx=0;exitDy=0;" parent="1" source="Rj_NIWeB4Wzyb2uFN2SR-43" target="Rj_NIWeB4Wzyb2uFN2SR-44" edge="1">
          <mxGeometry width="50" height="50" relative="1" as="geometry">
            <mxPoint x="505" y="-237.5" as="sourcePoint" />
            <mxPoint x="555" y="-287.5" as="targetPoint" />
          </mxGeometry>
        </mxCell>
        <mxCell id="Rj_NIWeB4Wzyb2uFN2SR-53" value="" style="endArrow=none;html=1;rounded=0;entryX=0;entryY=0.5;entryDx=0;entryDy=0;exitX=1;exitY=0.5;exitDx=0;exitDy=0;" parent="1" source="Rj_NIWeB4Wzyb2uFN2SR-43" target="Rj_NIWeB4Wzyb2uFN2SR-49" edge="1">
          <mxGeometry width="50" height="50" relative="1" as="geometry">
            <mxPoint x="450" y="-217.5" as="sourcePoint" />
            <mxPoint x="670" y="-327.5" as="targetPoint" />
          </mxGeometry>
        </mxCell>
        <mxCell id="Rj_NIWeB4Wzyb2uFN2SR-54" value="" style="endArrow=none;html=1;rounded=0;entryX=0;entryY=0.5;entryDx=0;entryDy=0;" parent="1" target="Rj_NIWeB4Wzyb2uFN2SR-45" edge="1">
          <mxGeometry width="50" height="50" relative="1" as="geometry">
            <mxPoint x="240" y="30" as="sourcePoint" />
            <mxPoint x="670" y="-327.5" as="targetPoint" />
          </mxGeometry>
        </mxCell>
        <mxCell id="Rj_NIWeB4Wzyb2uFN2SR-55" value="" style="endArrow=none;html=1;rounded=0;entryX=0.5;entryY=1;entryDx=0;entryDy=0;exitX=1;exitY=0.5;exitDx=0;exitDy=0;" parent="1" source="Rj_NIWeB4Wzyb2uFN2SR-43" target="Rj_NIWeB4Wzyb2uFN2SR-48" edge="1">
          <mxGeometry width="50" height="50" relative="1" as="geometry">
            <mxPoint x="620" y="-277.5" as="sourcePoint" />
            <mxPoint x="670" y="-327.5" as="targetPoint" />
          </mxGeometry>
        </mxCell>
        <mxCell id="Rj_NIWeB4Wzyb2uFN2SR-56" value="Muestra" style="rounded=1;whiteSpace=wrap;html=1;" parent="1" vertex="1">
          <mxGeometry x="90" y="255" width="70" height="45" as="geometry" />
        </mxCell>
        <mxCell id="Rj_NIWeB4Wzyb2uFN2SR-58" value="resultados" style="ellipse;whiteSpace=wrap;html=1;" parent="1" vertex="1">
          <mxGeometry x="250" y="238.75" width="70" height="37.5" as="geometry" />
        </mxCell>
        <mxCell id="Rj_NIWeB4Wzyb2uFN2SR-59" value="&lt;u&gt;id_muestra&lt;/u&gt;" style="ellipse;whiteSpace=wrap;html=1;" parent="1" vertex="1">
          <mxGeometry x="240" y="290" width="90" height="30" as="geometry" />
        </mxCell>
        <mxCell id="Rj_NIWeB4Wzyb2uFN2SR-63" value="" style="endArrow=none;html=1;rounded=0;entryX=0;entryY=0.5;entryDx=0;entryDy=0;exitX=1;exitY=0.5;exitDx=0;exitDy=0;" parent="1" source="Rj_NIWeB4Wzyb2uFN2SR-56" target="Rj_NIWeB4Wzyb2uFN2SR-58" edge="1">
          <mxGeometry width="50" height="50" relative="1" as="geometry">
            <mxPoint x="290" y="320" as="sourcePoint" />
            <mxPoint x="340" y="270" as="targetPoint" />
          </mxGeometry>
        </mxCell>
        <mxCell id="Rj_NIWeB4Wzyb2uFN2SR-64" value="" style="endArrow=none;html=1;rounded=0;entryX=0;entryY=0.5;entryDx=0;entryDy=0;exitX=1;exitY=0.5;exitDx=0;exitDy=0;" parent="1" source="Rj_NIWeB4Wzyb2uFN2SR-56" target="Rj_NIWeB4Wzyb2uFN2SR-59" edge="1">
          <mxGeometry width="50" height="50" relative="1" as="geometry">
            <mxPoint x="210" y="290" as="sourcePoint" />
            <mxPoint x="340" y="270" as="targetPoint" />
          </mxGeometry>
        </mxCell>
        <mxCell id="Rj_NIWeB4Wzyb2uFN2SR-65" value="Tabla_resultados" style="rounded=1;whiteSpace=wrap;html=1;" parent="1" vertex="1">
          <mxGeometry x="-110" y="268.13" width="110" height="40" as="geometry" />
        </mxCell>
        <mxCell id="Rj_NIWeB4Wzyb2uFN2SR-66" value="fecha_resultado" style="ellipse;whiteSpace=wrap;html=1;" parent="1" vertex="1">
          <mxGeometry x="-100" y="390" width="110" height="40" as="geometry" />
        </mxCell>
        <mxCell id="Rj_NIWeB4Wzyb2uFN2SR-67" value="valor_optenido" style="ellipse;whiteSpace=wrap;html=1;" parent="1" vertex="1">
          <mxGeometry x="-190" y="340" width="100" height="50" as="geometry" />
        </mxCell>
        <mxCell id="Rj_NIWeB4Wzyb2uFN2SR-68" value="&lt;u&gt;id_resultados&lt;/u&gt;" style="ellipse;whiteSpace=wrap;html=1;" parent="1" vertex="1">
          <mxGeometry x="-34.5" y="340" width="109" height="50" as="geometry" />
        </mxCell>
        <mxCell id="Rj_NIWeB4Wzyb2uFN2SR-70" value="" style="endArrow=none;html=1;rounded=0;exitX=0.5;exitY=1;exitDx=0;exitDy=0;" parent="1" source="Rj_NIWeB4Wzyb2uFN2SR-65" target="Rj_NIWeB4Wzyb2uFN2SR-66" edge="1">
          <mxGeometry width="50" height="50" relative="1" as="geometry">
            <mxPoint x="-200" y="290" as="sourcePoint" />
            <mxPoint x="-150" y="240" as="targetPoint" />
          </mxGeometry>
        </mxCell>
        <mxCell id="Rj_NIWeB4Wzyb2uFN2SR-72" value="" style="endArrow=none;html=1;rounded=0;entryX=0.5;entryY=0;entryDx=0;entryDy=0;exitX=0.5;exitY=1;exitDx=0;exitDy=0;" parent="1" source="Rj_NIWeB4Wzyb2uFN2SR-65" target="Rj_NIWeB4Wzyb2uFN2SR-67" edge="1">
          <mxGeometry width="50" height="50" relative="1" as="geometry">
            <mxPoint x="-85" y="250" as="sourcePoint" />
            <mxPoint x="-35" y="200" as="targetPoint" />
          </mxGeometry>
        </mxCell>
        <mxCell id="Rj_NIWeB4Wzyb2uFN2SR-73" value="" style="endArrow=none;html=1;rounded=0;entryX=0.5;entryY=0;entryDx=0;entryDy=0;exitX=0.5;exitY=1;exitDx=0;exitDy=0;" parent="1" source="Rj_NIWeB4Wzyb2uFN2SR-65" target="Rj_NIWeB4Wzyb2uFN2SR-68" edge="1">
          <mxGeometry width="50" height="50" relative="1" as="geometry">
            <mxPoint x="-85" y="250" as="sourcePoint" />
            <mxPoint x="-35" y="200" as="targetPoint" />
          </mxGeometry>
        </mxCell>
        <mxCell id="Rj_NIWeB4Wzyb2uFN2SR-74" value="Tabla_de_Referencia" style="rounded=1;whiteSpace=wrap;html=1;" parent="1" vertex="1">
          <mxGeometry x="-503" y="222.5" width="120" height="60" as="geometry" />
        </mxCell>
        <mxCell id="Rj_NIWeB4Wzyb2uFN2SR-75" value="genero" style="ellipse;whiteSpace=wrap;html=1;" parent="1" vertex="1">
          <mxGeometry x="-853" y="222.5" width="80" height="41.25" as="geometry" />
        </mxCell>
        <mxCell id="Rj_NIWeB4Wzyb2uFN2SR-76" value="descripcion" style="ellipse;whiteSpace=wrap;html=1;" parent="1" vertex="1">
          <mxGeometry x="-773" y="271.25" width="80" height="33.75" as="geometry" />
        </mxCell>
        <mxCell id="Rj_NIWeB4Wzyb2uFN2SR-77" value="&lt;br&gt;&lt;span style=&quot;color: rgb(0, 0, 0); font-family: Helvetica; font-size: 12px; font-style: normal; font-variant-ligatures: normal; font-variant-caps: normal; font-weight: 400; letter-spacing: normal; orphans: 2; text-align: center; text-indent: 0px; text-transform: none; widows: 2; word-spacing: 0px; -webkit-text-stroke-width: 0px; background-color: rgb(251, 251, 251); text-decoration-thickness: initial; text-decoration-style: initial; text-decoration-color: initial; float: none; display: inline !important;&quot;&gt;rango_de_edad_max&lt;/span&gt;&lt;br&gt;" style="ellipse;whiteSpace=wrap;html=1;" parent="1" vertex="1">
          <mxGeometry x="-753" y="92.5" width="143" height="50" as="geometry" />
        </mxCell>
        <mxCell id="Rj_NIWeB4Wzyb2uFN2SR-78" value="rango_de_edad_min" style="ellipse;whiteSpace=wrap;html=1;" parent="1" vertex="1">
          <mxGeometry x="-843" y="135" width="130" height="50" as="geometry" />
        </mxCell>
        <mxCell id="Rj_NIWeB4Wzyb2uFN2SR-79" value="&lt;u&gt;id_referencia&lt;/u&gt;" style="ellipse;whiteSpace=wrap;html=1;" parent="1" vertex="1">
          <mxGeometry x="-693" y="306.25" width="110" height="46.25" as="geometry" />
        </mxCell>
        <mxCell id="Rj_NIWeB4Wzyb2uFN2SR-80" value="unidad_de_medida" style="ellipse;whiteSpace=wrap;html=1;" parent="1" vertex="1">
          <mxGeometry x="-743" y="185" width="110" height="50" as="geometry" />
        </mxCell>
        <mxCell id="Rj_NIWeB4Wzyb2uFN2SR-81" value="" style="endArrow=none;html=1;rounded=0;" parent="1" source="Rj_NIWeB4Wzyb2uFN2SR-74" target="Rj_NIWeB4Wzyb2uFN2SR-75" edge="1">
          <mxGeometry width="50" height="50" relative="1" as="geometry">
            <mxPoint x="-878" y="477.5" as="sourcePoint" />
            <mxPoint x="-828" y="427.5" as="targetPoint" />
          </mxGeometry>
        </mxCell>
        <mxCell id="Rj_NIWeB4Wzyb2uFN2SR-82" value="" style="endArrow=none;html=1;rounded=0;entryX=0.5;entryY=1;entryDx=0;entryDy=0;exitX=0;exitY=0.5;exitDx=0;exitDy=0;" parent="1" source="Rj_NIWeB4Wzyb2uFN2SR-74" target="Rj_NIWeB4Wzyb2uFN2SR-77" edge="1">
          <mxGeometry width="50" height="50" relative="1" as="geometry">
            <mxPoint x="-903" y="497.5" as="sourcePoint" />
            <mxPoint x="-713" y="387.5" as="targetPoint" />
          </mxGeometry>
        </mxCell>
        <mxCell id="Rj_NIWeB4Wzyb2uFN2SR-83" value="" style="endArrow=none;html=1;rounded=0;entryX=1;entryY=0.5;entryDx=0;entryDy=0;exitX=0;exitY=0.5;exitDx=0;exitDy=0;" parent="1" source="Rj_NIWeB4Wzyb2uFN2SR-74" target="Rj_NIWeB4Wzyb2uFN2SR-78" edge="1">
          <mxGeometry width="50" height="50" relative="1" as="geometry">
            <mxPoint x="-763" y="437.5" as="sourcePoint" />
            <mxPoint x="-713" y="387.5" as="targetPoint" />
          </mxGeometry>
        </mxCell>
        <mxCell id="Rj_NIWeB4Wzyb2uFN2SR-84" value="" style="endArrow=none;html=1;rounded=0;entryX=1;entryY=0.5;entryDx=0;entryDy=0;exitX=0;exitY=0.5;exitDx=0;exitDy=0;" parent="1" source="Rj_NIWeB4Wzyb2uFN2SR-74" target="Rj_NIWeB4Wzyb2uFN2SR-80" edge="1">
          <mxGeometry width="50" height="50" relative="1" as="geometry">
            <mxPoint x="-933" y="497.5" as="sourcePoint" />
            <mxPoint x="-713" y="387.5" as="targetPoint" />
          </mxGeometry>
        </mxCell>
        <mxCell id="Rj_NIWeB4Wzyb2uFN2SR-85" value="" style="endArrow=none;html=1;rounded=0;entryX=1;entryY=0.5;entryDx=0;entryDy=0;exitX=0;exitY=0.5;exitDx=0;exitDy=0;" parent="1" source="Rj_NIWeB4Wzyb2uFN2SR-74" target="Rj_NIWeB4Wzyb2uFN2SR-76" edge="1">
          <mxGeometry width="50" height="50" relative="1" as="geometry">
            <mxPoint x="-763" y="437.5" as="sourcePoint" />
            <mxPoint x="-713" y="387.5" as="targetPoint" />
          </mxGeometry>
        </mxCell>
        <mxCell id="Rj_NIWeB4Wzyb2uFN2SR-87" value="valor_ref_min" style="ellipse;whiteSpace=wrap;html=1;" parent="1" vertex="1">
          <mxGeometry x="-503" y="80" width="90" height="55" as="geometry" />
        </mxCell>
        <mxCell id="Rj_NIWeB4Wzyb2uFN2SR-88" value="valor_ref_max" style="ellipse;whiteSpace=wrap;html=1;" parent="1" vertex="1">
          <mxGeometry x="-603" y="80" width="90" height="50" as="geometry" />
        </mxCell>
        <mxCell id="Rj_NIWeB4Wzyb2uFN2SR-89" value="" style="endArrow=none;html=1;rounded=0;exitX=-0.012;exitY=0.42;exitDx=0;exitDy=0;entryX=0;entryY=1;entryDx=0;entryDy=0;exitPerimeter=0;" parent="1" source="Rj_NIWeB4Wzyb2uFN2SR-74" target="Rj_NIWeB4Wzyb2uFN2SR-87" edge="1">
          <mxGeometry width="50" height="50" relative="1" as="geometry">
            <mxPoint x="-723" y="612.5" as="sourcePoint" />
            <mxPoint x="-603" y="342.5" as="targetPoint" />
          </mxGeometry>
        </mxCell>
        <mxCell id="Rj_NIWeB4Wzyb2uFN2SR-90" value="" style="endArrow=none;html=1;rounded=0;exitX=0;exitY=0.5;exitDx=0;exitDy=0;" parent="1" source="Rj_NIWeB4Wzyb2uFN2SR-74" target="Rj_NIWeB4Wzyb2uFN2SR-88" edge="1">
          <mxGeometry width="50" height="50" relative="1" as="geometry">
            <mxPoint x="-723" y="612.5" as="sourcePoint" />
            <mxPoint x="-673" y="562.5" as="targetPoint" />
          </mxGeometry>
        </mxCell>
        <mxCell id="Rj_NIWeB4Wzyb2uFN2SR-91" value="Usuario" style="rounded=1;whiteSpace=wrap;html=1;" parent="1" vertex="1">
          <mxGeometry x="-230" y="-120" width="120" height="60" as="geometry" />
        </mxCell>
        <mxCell id="Rj_NIWeB4Wzyb2uFN2SR-92" value="apellido" style="ellipse;whiteSpace=wrap;html=1;" parent="1" vertex="1">
          <mxGeometry x="-234.5" y="-350" width="60" height="40" as="geometry" />
        </mxCell>
        <mxCell id="Rj_NIWeB4Wzyb2uFN2SR-93" value="dni" style="ellipse;whiteSpace=wrap;html=1;" parent="1" vertex="1">
          <mxGeometry x="-284.5" y="-340" width="50" height="50" as="geometry" />
        </mxCell>
        <mxCell id="Rj_NIWeB4Wzyb2uFN2SR-95" value="rol" style="ellipse;whiteSpace=wrap;html=1;" parent="1" vertex="1">
          <mxGeometry x="-84.5" y="-350" width="50" height="40" as="geometry" />
        </mxCell>
        <mxCell id="Rj_NIWeB4Wzyb2uFN2SR-96" value="&lt;u&gt;id_Usuario&lt;/u&gt;" style="ellipse;whiteSpace=wrap;html=1;" parent="1" vertex="1">
          <mxGeometry x="-364.5" y="-300" width="80" height="45" as="geometry" />
        </mxCell>
        <mxCell id="Rj_NIWeB4Wzyb2uFN2SR-97" value="nombre" style="ellipse;whiteSpace=wrap;html=1;" parent="1" vertex="1">
          <mxGeometry x="-164.5" y="-350" width="70" height="40" as="geometry" />
        </mxCell>
        <mxCell id="Rj_NIWeB4Wzyb2uFN2SR-98" value="" style="endArrow=none;html=1;rounded=0;exitX=0.5;exitY=0;exitDx=0;exitDy=0;" parent="1" source="Rj_NIWeB4Wzyb2uFN2SR-91" target="Rj_NIWeB4Wzyb2uFN2SR-92" edge="1">
          <mxGeometry width="50" height="50" relative="1" as="geometry">
            <mxPoint x="-85" y="-282.5" as="sourcePoint" />
            <mxPoint x="-35" y="-332.5" as="targetPoint" />
          </mxGeometry>
        </mxCell>
        <mxCell id="Rj_NIWeB4Wzyb2uFN2SR-100" value="" style="endArrow=none;html=1;rounded=0;entryX=0.5;entryY=1;entryDx=0;entryDy=0;exitX=0.5;exitY=0;exitDx=0;exitDy=0;" parent="1" source="Rj_NIWeB4Wzyb2uFN2SR-91" target="Rj_NIWeB4Wzyb2uFN2SR-95" edge="1">
          <mxGeometry width="50" height="50" relative="1" as="geometry">
            <mxPoint x="30" y="-322.5" as="sourcePoint" />
            <mxPoint x="80" y="-372.5" as="targetPoint" />
          </mxGeometry>
        </mxCell>
        <mxCell id="Rj_NIWeB4Wzyb2uFN2SR-101" value="" style="endArrow=none;html=1;rounded=0;entryX=0.5;entryY=1;entryDx=0;entryDy=0;exitX=0.5;exitY=0;exitDx=0;exitDy=0;" parent="1" source="Rj_NIWeB4Wzyb2uFN2SR-91" target="Rj_NIWeB4Wzyb2uFN2SR-97" edge="1">
          <mxGeometry width="50" height="50" relative="1" as="geometry">
            <mxPoint x="-140" y="-262.5" as="sourcePoint" />
            <mxPoint x="80" y="-372.5" as="targetPoint" />
          </mxGeometry>
        </mxCell>
        <mxCell id="Rj_NIWeB4Wzyb2uFN2SR-102" value="" style="endArrow=none;html=1;rounded=0;entryX=0.5;entryY=1;entryDx=0;entryDy=0;exitX=0.5;exitY=0;exitDx=0;exitDy=0;" parent="1" source="Rj_NIWeB4Wzyb2uFN2SR-91" target="Rj_NIWeB4Wzyb2uFN2SR-93" edge="1">
          <mxGeometry width="50" height="50" relative="1" as="geometry">
            <mxPoint x="30" y="-322.5" as="sourcePoint" />
            <mxPoint x="80" y="-372.5" as="targetPoint" />
          </mxGeometry>
        </mxCell>
        <mxCell id="Rj_NIWeB4Wzyb2uFN2SR-104" value="" style="endArrow=none;html=1;rounded=0;entryX=0.5;entryY=0;entryDx=0;entryDy=0;exitX=0.5;exitY=1;exitDx=0;exitDy=0;" parent="1" source="Rj_NIWeB4Wzyb2uFN2SR-30" target="Rj_NIWeB4Wzyb2uFN2SR-22" edge="1">
          <mxGeometry width="50" height="50" relative="1" as="geometry">
            <mxPoint x="-360" y="-365" as="sourcePoint" />
            <mxPoint x="-310" y="-415" as="targetPoint" />
          </mxGeometry>
        </mxCell>
        <mxCell id="Rj_NIWeB4Wzyb2uFN2SR-105" value="" style="endArrow=none;html=1;rounded=0;exitX=1;exitY=0.5;exitDx=0;exitDy=0;entryX=0.5;entryY=0;entryDx=0;entryDy=0;" parent="1" source="Rj_NIWeB4Wzyb2uFN2SR-96" target="Rj_NIWeB4Wzyb2uFN2SR-91" edge="1">
          <mxGeometry width="50" height="50" relative="1" as="geometry">
            <mxPoint x="-610" y="-175" as="sourcePoint" />
            <mxPoint x="-50" y="-171.25" as="targetPoint" />
          </mxGeometry>
        </mxCell>
        <mxCell id="Rj_NIWeB4Wzyb2uFN2SR-112" value="" style="edgeStyle=entityRelationEdgeStyle;fontSize=12;html=1;endArrow=ERoneToMany;rounded=0;exitX=1;exitY=0.5;exitDx=0;exitDy=0;entryX=0;entryY=0.5;entryDx=0;entryDy=0;" parent="1" source="Rj_NIWeB4Wzyb2uFN2SR-22" target="Rj_NIWeB4Wzyb2uFN2SR-43" edge="1">
          <mxGeometry width="100" height="100" relative="1" as="geometry">
            <mxPoint x="430" y="-80" as="sourcePoint" />
            <mxPoint x="530" y="-180" as="targetPoint" />
          </mxGeometry>
        </mxCell>
        <mxCell id="Rj_NIWeB4Wzyb2uFN2SR-113" value="tec" style="shape=rhombus;perimeter=rhombusPerimeter;whiteSpace=wrap;html=1;align=center;" parent="1" vertex="1">
          <mxGeometry x="-50" y="140" width="120" height="60" as="geometry" />
        </mxCell>
        <mxCell id="Rj_NIWeB4Wzyb2uFN2SR-115" value="" style="edgeStyle=entityRelationEdgeStyle;fontSize=12;html=1;endArrow=ERoneToMany;rounded=0;exitX=0;exitY=0.5;exitDx=0;exitDy=0;" parent="1" source="Rj_NIWeB4Wzyb2uFN2SR-113" edge="1">
          <mxGeometry width="100" height="100" relative="1" as="geometry">
            <mxPoint x="-59" y="165" as="sourcePoint" />
            <mxPoint x="-43.5" y="50" as="targetPoint" />
            <Array as="points">
              <mxPoint x="-102.5" y="90" />
              <mxPoint x="-92.5" y="110" />
              <mxPoint x="-23.5" y="90" />
              <mxPoint x="106.5" y="100" />
              <mxPoint x="106.5" y="100" />
              <mxPoint x="-132.5" y="90" />
              <mxPoint x="-112.5" y="140" />
              <mxPoint x="-52.5" y="-150" />
              <mxPoint x="-112.5" y="110" />
              <mxPoint x="-42.5" y="-130" />
              <mxPoint x="-32.5" y="-130" />
            </Array>
          </mxGeometry>
        </mxCell>
        <mxCell id="Rj_NIWeB4Wzyb2uFN2SR-117" value="" style="edgeStyle=entityRelationEdgeStyle;fontSize=12;html=1;endArrow=ERoneToMany;rounded=0;exitX=1;exitY=1;exitDx=0;exitDy=0;entryX=-0.006;entryY=0.099;entryDx=0;entryDy=0;entryPerimeter=0;" parent="1" source="Rj_NIWeB4Wzyb2uFN2SR-113" target="Rj_NIWeB4Wzyb2uFN2SR-56" edge="1">
          <mxGeometry width="100" height="100" relative="1" as="geometry">
            <mxPoint x="430" y="160" as="sourcePoint" />
            <mxPoint x="140" y="230" as="targetPoint" />
            <Array as="points">
              <mxPoint x="150" y="210" />
              <mxPoint x="160" y="160" />
              <mxPoint x="160" y="170" />
            </Array>
          </mxGeometry>
        </mxCell>
        <mxCell id="Rj_NIWeB4Wzyb2uFN2SR-118" value="" style="edgeStyle=entityRelationEdgeStyle;fontSize=12;html=1;endArrow=ERmandOne;startArrow=ERmandOne;rounded=0;entryX=0;entryY=0.75;entryDx=0;entryDy=0;exitX=1;exitY=0.5;exitDx=0;exitDy=0;" parent="1" source="Rj_NIWeB4Wzyb2uFN2SR-65" target="Rj_NIWeB4Wzyb2uFN2SR-56" edge="1">
          <mxGeometry width="100" height="100" relative="1" as="geometry">
            <mxPoint x="-40" y="380" as="sourcePoint" />
            <mxPoint x="40" y="60" as="targetPoint" />
          </mxGeometry>
        </mxCell>
        <mxCell id="Rj_NIWeB4Wzyb2uFN2SR-119" value="bioquimico" style="shape=rhombus;perimeter=rhombusPerimeter;whiteSpace=wrap;html=1;align=center;" parent="1" vertex="1">
          <mxGeometry x="-320" y="178.75" width="120" height="60" as="geometry" />
        </mxCell>
        <mxCell id="Rj_NIWeB4Wzyb2uFN2SR-120" value="" style="edgeStyle=entityRelationEdgeStyle;fontSize=12;html=1;endArrow=ERmandOne;startArrow=ERmandOne;rounded=0;entryX=0;entryY=0.5;entryDx=0;entryDy=0;" parent="1" source="Rj_NIWeB4Wzyb2uFN2SR-119" target="Rj_NIWeB4Wzyb2uFN2SR-65" edge="1">
          <mxGeometry width="100" height="100" relative="1" as="geometry">
            <mxPoint x="-440" y="390" as="sourcePoint" />
            <mxPoint x="-340" y="290" as="targetPoint" />
          </mxGeometry>
        </mxCell>
        <mxCell id="Rj_NIWeB4Wzyb2uFN2SR-121" value="" style="edgeStyle=entityRelationEdgeStyle;fontSize=12;html=1;endArrow=ERmandOne;startArrow=ERmandOne;rounded=0;exitX=1;exitY=0.25;exitDx=0;exitDy=0;entryX=0;entryY=0.5;entryDx=0;entryDy=0;" parent="1" source="Rj_NIWeB4Wzyb2uFN2SR-74" target="Rj_NIWeB4Wzyb2uFN2SR-119" edge="1">
          <mxGeometry width="100" height="100" relative="1" as="geometry">
            <mxPoint x="-440" y="390" as="sourcePoint" />
            <mxPoint x="-340" y="290" as="targetPoint" />
          </mxGeometry>
        </mxCell>
        <mxCell id="Rj_NIWeB4Wzyb2uFN2SR-122" value="" style="edgeStyle=entityRelationEdgeStyle;fontSize=12;html=1;endArrow=ERmandOne;startArrow=ERmandOne;rounded=0;entryX=0.675;entryY=1;entryDx=0;entryDy=0;exitX=0.5;exitY=0;exitDx=0;exitDy=0;entryPerimeter=0;" parent="1" target="Rj_NIWeB4Wzyb2uFN2SR-1" edge="1">
          <mxGeometry width="100" height="100" relative="1" as="geometry">
            <mxPoint x="-265" y="178.75" as="sourcePoint" />
            <mxPoint x="-215" y="70" as="targetPoint" />
          </mxGeometry>
        </mxCell>
        <mxCell id="Rj_NIWeB4Wzyb2uFN2SR-126" value="entrega informe" style="text;strokeColor=none;fillColor=none;align=left;verticalAlign=middle;spacingLeft=4;spacingRight=4;overflow=hidden;points=[[0,0.5],[1,0.5]];portConstraint=eastwest;rotatable=0;whiteSpace=wrap;html=1;" parent="1" vertex="1">
          <mxGeometry x="-305" y="100" width="90" height="40" as="geometry" />
        </mxCell>
        <mxCell id="Rj_NIWeB4Wzyb2uFN2SR-127" value="recepciona" style="text;strokeColor=none;fillColor=none;align=left;verticalAlign=middle;spacingLeft=4;spacingRight=4;overflow=hidden;points=[[0,0.5],[1,0.5]];portConstraint=eastwest;rotatable=0;whiteSpace=wrap;html=1;" parent="1" vertex="1">
          <mxGeometry x="-310" y="-20" width="80" height="30" as="geometry" />
        </mxCell>
        <mxCell id="Rj_NIWeB4Wzyb2uFN2SR-128" value="emite" style="text;strokeColor=none;fillColor=none;align=left;verticalAlign=middle;spacingLeft=4;spacingRight=4;overflow=hidden;points=[[0,0.5],[1,0.5]];portConstraint=eastwest;rotatable=0;whiteSpace=wrap;html=1;" parent="1" vertex="1">
          <mxGeometry x="-130" y="-11.25" width="80" height="30" as="geometry" />
        </mxCell>
        <mxCell id="Rj_NIWeB4Wzyb2uFN2SR-130" value="optiene" style="text;strokeColor=none;fillColor=none;align=left;verticalAlign=middle;spacingLeft=4;spacingRight=4;overflow=hidden;points=[[0,0.5],[1,0.5]];portConstraint=eastwest;rotatable=0;whiteSpace=wrap;html=1;" parent="1" vertex="1">
          <mxGeometry x="-30" y="222.5" width="80" height="30" as="geometry" />
        </mxCell>
        <mxCell id="Rj_NIWeB4Wzyb2uFN2SR-131" value="valida" style="text;strokeColor=none;fillColor=none;align=left;verticalAlign=middle;spacingLeft=4;spacingRight=4;overflow=hidden;points=[[0,0.5],[1,0.5]];portConstraint=eastwest;rotatable=0;whiteSpace=wrap;html=1;" parent="1" vertex="1">
          <mxGeometry x="-170" y="185" width="80" height="30" as="geometry" />
        </mxCell>
        <mxCell id="bUrEmh_cfuSGxwmdtMuW-1" value="" style="edgeStyle=entityRelationEdgeStyle;fontSize=12;html=1;endArrow=ERmandOne;startArrow=ERmandOne;rounded=0;exitX=1;exitY=0.5;exitDx=0;exitDy=0;entryX=0;entryY=0.5;entryDx=0;entryDy=0;" edge="1" parent="1" source="Rj_NIWeB4Wzyb2uFN2SR-1" target="Rj_NIWeB4Wzyb2uFN2SR-22">
          <mxGeometry width="100" height="100" relative="1" as="geometry">
            <mxPoint x="-250" y="20" as="sourcePoint" />
            <mxPoint x="-150" y="-80" as="targetPoint" />
          </mxGeometry>
        </mxCell>
        <mxCell id="bUrEmh_cfuSGxwmdtMuW-2" value="" style="edgeStyle=entityRelationEdgeStyle;fontSize=12;html=1;endArrow=ERmandOne;startArrow=ERmandOne;rounded=0;entryX=-0.008;entryY=0.117;entryDx=0;entryDy=0;entryPerimeter=0;exitX=0.992;exitY=0.867;exitDx=0;exitDy=0;exitPerimeter=0;" edge="1" parent="1" source="Rj_NIWeB4Wzyb2uFN2SR-91" target="Rj_NIWeB4Wzyb2uFN2SR-22">
          <mxGeometry width="100" height="100" relative="1" as="geometry">
            <mxPoint x="-90" y="-100" as="sourcePoint" />
            <mxPoint x="-30" y="-180" as="targetPoint" />
          </mxGeometry>
        </mxCell>
      </root>
    </mxGraphModel>
  </diagram>
</mxfile>
